<?xml version="1.0" encoding="UTF-8" standalone="no"?>
<!DOCTYPE svg PUBLIC "-//W3C//DTD SVG 20010904//EN"
              "http://www.w3.org/TR/2001/REC-SVG-20010904/DTD/svg10.dtd">

<svg xmlns="http://www.w3.org/2000/svg"
     width="400px" height="400px"
     viewBox="0 0 400 400">

  <path id="N"
        fill="#ffffff" stroke="none"
        d="M 153.89,88.22
           C 152.25,86.57 150.38,85.46 148.28,84.88
             146.19,84.29 141.76,84.00 135.00,84.00
             131.75,84.00 127.51,84.00 122.28,84.00
             117.05,84.00 111.88,84.00 106.75,84.00
             103.72,83.78 100.68,83.62 97.64,83.50
             94.61,83.39 91.46,83.22 88.20,83.00
             88.20,83.00 87.84,86.00 87.84,86.00
             87.61,86.70 87.50,87.34 87.50,87.92
             87.50,88.51 87.50,89.03 87.50,89.50
             87.50,93.23 88.90,95.45 91.70,96.14
             100.33,97.31 105.86,98.88 108.31,100.86
             110.77,102.84 112.00,105.70 112.00,109.42
             112.00,109.42 112.00,286.38 112.00,286.38
             112.00,290.80 110.60,294.07 107.80,296.17
             104.99,298.27 99.39,300.01 91.00,301.41
             89.83,301.65 88.84,302.23 88.02,303.17
             87.20,304.10 86.80,305.73 86.80,308.06
             86.80,308.76 86.80,309.70 86.80,310.86
             86.80,312.02 87.03,313.06 87.50,314.00
             92.63,313.47 98.29,313.00 104.47,312.59
             110.66,312.20 117.13,312.00 123.91,312.00
             130.66,312.00 136.61,312.20 141.75,312.59
             146.88,313.00 152.37,313.47 158.20,314.00
             158.66,311.67 158.89,309.68 158.89,308.05
             158.89,305.48 158.48,303.78 157.67,302.97
             156.86,302.16 155.87,301.63 154.70,301.39
             149.80,300.45 145.88,299.58 142.97,298.77
             140.05,297.95 137.83,297.02 136.31,295.97
             134.80,294.92 133.87,293.64 133.52,292.12
             133.17,290.61 133.00,288.67 133.00,286.33
             133.00,286.33 133.00,135.05 133.00,135.05
             133.00,135.05 271.00,310.00 271.00,310.00
             273.07,312.45 275.02,314.05 276.86,314.83
             278.70,315.61 280.43,316.00 282.03,316.00
             282.72,316.00 284.16,316.00 286.34,316.00
             288.53,316.00 290.08,316.00 291.00,316.00
             291.00,316.00 291.00,111.03 291.00,111.03
             291.00,106.36 292.39,102.97 295.19,100.88
             297.99,98.77 303.24,97.14 310.94,95.97
             313.74,95.50 315.14,93.28 315.14,89.31
             315.14,88.61 315.08,87.67 314.97,86.50
             314.85,85.34 314.68,84.17 314.44,83.00
             309.07,83.40 303.71,83.66 298.34,83.80
             292.98,83.93 286.56,84.00 279.09,84.00
             271.62,84.00 265.09,83.93 259.48,83.80
             253.89,83.66 248.18,83.40 242.34,83.00
             241.88,84.17 241.64,85.34 241.64,86.50
             241.64,87.66 241.64,88.59 241.64,89.28
             241.64,93.01 243.16,95.23 246.19,95.92
             255.06,97.09 261.25,98.72 264.75,100.81
             268.25,102.91 270.00,106.52 270.00,111.64
             270.00,111.64 270.00,235.66 270.00,235.66
             270.00,235.66 153.89,88.22 153.89,88.22 Z" />

  <path id="7"
        fill="#a1a1a1" stroke="none"
        d="M 73.80,289.00
           C 70.20,294.80 67.13,300.16 64.58,305.06
             62.04,309.96 59.91,314.54 58.22,318.81
             56.52,323.07 55.16,327.07 54.16,330.80
             53.16,334.54 52.44,338.14 52.00,341.61
             52.00,341.87 52.00,342.10 52.00,342.30
             52.00,342.50 52.00,342.77 52.00,343.11
             52.00,343.84 52.23,344.27 52.70,344.41
             53.17,344.54 53.84,344.61 54.72,344.61
             55.58,344.61 56.61,344.54 57.80,344.41
             58.98,344.27 60.10,344.05 61.16,343.75
             62.22,343.46 63.12,343.08 63.88,342.61
             64.62,342.14 65.00,341.60 65.00,341.00
             65.27,335.74 65.70,331.00 66.30,326.80
             66.90,322.60 67.80,318.37 69.00,314.11
             70.20,309.84 71.83,305.27 73.89,300.41
             75.96,295.54 78.60,289.80 81.80,283.17
             81.80,283.17 81.80,280.00 81.80,280.00
             81.80,280.00 58.03,280.00 58.03,280.00
             56.02,280.00 54.19,280.00 52.55,280.00
             50.91,280.00 49.30,280.00 47.70,280.00
             47.23,280.00 46.88,280.05 46.64,280.16
             46.41,280.25 46.23,280.59 46.09,281.17
             45.76,283.20 45.34,285.32 44.84,287.56
             44.34,289.79 43.66,292.31 42.80,295.11
             43.13,295.25 43.64,295.34 44.34,295.41
             45.04,295.47 45.49,295.50 45.70,295.50
             46.49,295.50 47.05,295.14 47.39,294.41
             48.13,292.68 48.96,291.34 49.89,290.41
             50.83,289.47 51.94,289.00 53.22,289.00
             53.22,289.00 73.80,289.00 73.80,289.00 Z" />
</svg>
